<?xml version="1.0" encoding="UTF-8"?>
<svg width="275px" height="424px" viewBox="0 0 275 424" version="1.1" xmlns="http://www.w3.org/2000/svg" xmlns:xlink="http://www.w3.org/1999/xlink">
    <!-- Generator: Sketch 61.2 (89653) - https://sketch.com -->
    <title>Path</title>
    <desc>Created with Sketch.</desc>
    <defs>
        <rect id="path-1" x="0" y="0" width="345" height="424"></rect>
    </defs>
    <g id="Page-1" stroke="none" stroke-width="1" fill="none" fill-rule="evenodd">
        <g id="Artboard-Copy" transform="translate(-641.000000, -625.000000)">
            <g id="Group-11" transform="translate(20.000000, 625.000000)">
                <rect id="Rectangle-Copy-3" stroke="#FFF7B9" stroke-width="4" transform="translate(479.000000, 212.000000) scale(1, -1) translate(-479.000000, -212.000000) " x="-2" y="-2" width="962" height="428"></rect>
                <g id="Group-2" transform="translate(560.000000, 0.000000)">
                    <g id="Group">
                        <mask id="mask-2" fill="white">
                            <use xlink:href="#path-1"></use>
                        </mask>
                        <g id="Rectangle"></g>
                        <path d="M211.964632,107.76091 L225.877184,95.1097496 C227.182837,93.5139859 228.584876,91.7749229 230.355599,89.5598563 C231.221798,88.476295 234.405799,84.4813687 235.078639,83.6390435 C235.616537,82.9656525 236.110527,82.3483216 236.584443,81.7574284 C245.82554,70.2353274 251.381686,63.9521747 255.735834,60.6295262 C259.144758,58.0281788 262.780261,56.316887 266.406252,55.3226819 C267.678965,54.9737187 268.861726,54.7392301 269.925882,54.5976803 C270.278204,54.5508158 270.578441,54.518774 270.822018,54.4981389 L286.265099,34.2469106 C288.296739,31.9787232 290.301698,27.7212984 292.230729,21.5037191 L292.342975,21.1419324 L292.666746,20.9453086 C297.823914,17.8134011 301.992162,15.881515 305.203791,15.1521787 C307.013662,14.7411708 308.23577,14.984191 310.546305,15.8769257 C310.668274,15.9240651 310.668274,15.9240651 310.78879,15.9704938 C313.407243,16.9773268 314.720514,16.9619386 317.056941,15.310709 C319.413548,13.6452176 321.831258,10.6830873 325.222208,5.6639485 C325.718804,4.92890728 328.062758,1.39850692 328.683677,0.487121821 C329.961938,-1.38911181 330.937363,-2.70845403 331.826959,-3.72236858 C332.85877,-4.89837287 333.837959,-5.63481368 336.097402,-7.10406846 C336.121181,-7.11953087 336.121181,-7.11953087 336.144942,-7.1349824 C337.948021,-8.30749634 338.72954,-8.87375561 339.545647,-9.67686308 C341.077465,-11.184281 342.225787,-12.5433065 344.647354,-15.5968976 C344.687849,-15.6479628 344.687849,-15.6479628 344.728356,-15.6990436 C348.114805,-19.969378 349.759575,-21.8168171 352.179223,-23.7466175 C354.106472,-25.2837025 355.942528,-26.1953646 359.903072,-27.8172044 C360.013212,-27.8623 360.013212,-27.8623 360.123218,-27.9073314 C364.917623,-29.8700378 366.898735,-30.9438762 368.735247,-32.9485614 C372.046877,-36.5634431 374.08771,-39.986401 378.152647,-47.9898764 C378.207783,-48.0984338 378.207783,-48.0984338 378.262936,-48.2070215 C380.862206,-53.324461 382.153622,-55.6966035 383.946371,-58.4218421 C384.958485,-59.9604015 386.23497,-61 387.721421,-60.999937 C388.843905,-60.9873372 389.20805,-60.0882003 389.11177,-59.0610749 C389.057224,-58.4791675 388.843063,-57.7995699 388.57747,-57.3465552 C387.332744,-55.2234557 386.218216,-53.6015341 383.651019,-50.0511417 C383.633627,-50.0270887 383.633627,-50.0270887 383.616237,-50.0030382 C380.675656,-45.9362484 379.417551,-44.0696964 378.103867,-41.6355858 C377.328088,-40.1981528 376.8673,-38.8017612 376.110656,-35.9194094 C376.075342,-35.7848212 376.075342,-35.7848212 376.039993,-35.6499913 C374.822979,-31.0083068 374.038551,-29.0227736 372.170244,-27.0119083 C370.45943,-25.1705543 368.680837,-24.3797569 364.495049,-23.1341653 C364.372997,-23.097849 364.372997,-23.097849 364.251206,-23.061584 C361.400976,-22.2125114 360.062161,-21.694038 358.751135,-20.7948408 C357.668522,-20.0523061 356.950766,-19.2052454 355.475881,-17.1187708 C355.458984,-17.094867 355.458984,-17.094867 355.442071,-17.0709409 C354.004503,-15.0372792 353.279246,-14.1513562 352.145302,-13.250836 C350.565587,-11.9963068 349.124643,-11.1739711 345.997622,-9.59910237 C345.925146,-9.56260345 345.925146,-9.56260345 345.852736,-9.52614017 C341.93172,-7.55161315 340.285201,-6.54019942 338.667707,-4.85410228 C336.16926,-2.24968789 334.521657,0.164454487 331.078648,5.85349762 C331.07598,5.85790583 331.07598,5.85790583 331.073312,5.86231411 C327.592104,11.6144747 325.908393,14.0873286 323.314079,16.8163433 C318.168353,22.2292419 315.048334,23.4963515 310.865591,22.8427484 C310.578798,22.7979336 310.432748,22.7725095 309.817512,22.6627279 C304.983396,21.8001365 301.92815,22.6267923 295.361282,28.1853791 C294.626571,28.8072819 294.588795,29.7039922 295.05202,32.3050866 C295.090733,32.5224668 295.112391,32.6452094 295.135762,32.7808159 C295.503297,34.9133873 295.517764,36.1750169 294.942863,37.4148619 C294.386326,38.615103 293.574346,39.1332769 291.630463,39.9423471 C291.57701,39.9645912 291.57701,39.9645912 291.523897,39.9867029 C290.240826,40.5210652 289.712584,40.8268367 289.357094,41.3047861 C287.723454,43.5011791 286.607184,45.4651808 284.328942,49.889962 C284.3041,49.9382097 284.3041,49.9382097 284.279253,49.9864679 C281.538186,55.3102558 280.178632,57.6260799 278.009439,60.2138467 C276.707919,61.7665111 275.382816,62.6293787 272.275949,64.249048 C272.23376,64.2710413 272.23376,64.2710413 272.191613,64.2930139 C269.683399,65.6006821 268.602639,66.2718364 267.548485,67.3177301 C262.394669,72.4311608 259.080767,77.2022033 252.53608,88.0361746 C252.29004,88.4434927 252.29004,88.4434927 252.043795,88.8510543 C247.416498,96.5083147 244.92729,100.308658 241.568138,104.478866 C238.34562,108.479452 224.085702,121.203508 220.239671,123.178165 C219.296494,123.662418 218.29267,123.607328 216.703308,123.224402 C216.564304,123.190911 216.430972,123.157676 216.225977,123.105799 C214.505723,122.670466 214.090442,122.671832 213.998137,122.904417 C211.325482,129.638818 212.233804,135.107552 216.268162,140.15105 C219.416882,144.08738 223.358299,146.983282 232.217144,152.473188 C232.243753,152.489678 233.311355,153.150976 233.619556,153.342127 C244.340867,159.991649 248.870945,163.653107 251.434818,169.044602 C252.5487,171.386954 252.827353,174.055666 252.620783,177.688578 C252.580148,178.40321 252.546159,179.007271 252.476752,180.245417 C252.30506,183.308214 252.230921,184.60739 252.130277,186.279511 C251.400069,198.411449 250.554203,206.566538 248.951185,214.720211 C248.186528,218.609605 246.519734,221.737116 242.815093,227.200877 C238.654598,233.336951 225.008856,252.926603 222.505859,256.606985 C215.488017,266.925951 210.678277,274.673313 206.779803,282.196006 C205.223422,285.199276 203.838306,288.127982 202.610218,291.024919 C200.726375,295.468715 199.976728,300.076349 198.923085,310.973122 C198.810846,312.133902 198.786102,312.389072 198.734659,312.913295 C197.291128,327.623564 195.537546,334.637814 190.589313,339.827848 C187.964948,342.580454 184.531987,344.75978 180.09739,346.743432 C178.161141,347.609541 176.053157,347.077684 173.082509,345.473683 C172.626775,345.22761 172.180517,344.974586 171.524652,344.594231 C168.672576,342.94023 167.792022,342.499949 166.771772,342.347508 C165.712578,342.189248 165.126857,342.650881 164.710397,344.365435 C162.812841,352.177624 163.801166,354.952695 168.092905,359.168873 C168.09993,359.175774 168.09993,359.175774 168.106957,359.182677 C171.815745,362.826173 173.094494,365.155166 172.921879,370.125334 C172.052854,395.147544 169.993807,410.64774 164.118263,423.574289 C157.957224,437.128946 150.508777,443.59494 140.396789,444.890975 C132.525835,445.899782 126.359821,444.624593 106.535444,438.946303 C100.892329,437.329948 94.0684083,433.63993 88.8189884,429.163782 C82.5031817,423.778333 78.8362837,417.704293 78.9400647,411.571166 C78.9709954,409.743265 79.3636251,408.225827 80.3786154,405.324663 C80.4242386,405.194331 80.4242386,405.194331 80.4697942,405.064336 C82.3732531,399.632663 82.5150244,397.324451 80.2303645,394.259544 C80.2270095,394.255043 80.0736026,394.171409 79.7682583,394.077188 C79.4006139,393.963743 78.9033557,393.859283 78.149158,393.731783 C78.263595,393.751129 75.9829683,393.384193 75.2559199,393.250581 C73.9964486,393.019123 72.8989101,392.763914 71.8459496,392.439514 C67.0184783,390.952247 63.7959976,388.161676 62.6045875,383.345104 C61.5264691,378.986541 61.9082523,374.708839 63.5331782,369.76438 C64.4095773,367.0976 64.781709,366.227046 67.6738642,359.774645 C72.5656796,348.861001 74.1413,342.451271 72.7163095,333.894768 C72.3210247,331.52124 71.7764157,329.449871 70.9401978,326.88812 C70.7456023,326.291977 70.0888006,324.342078 69.9920899,324.04927 C69.6331337,322.962472 69.3784983,322.127909 69.1651194,321.310939 C67.9572246,316.686233 68.2617436,312.701488 70.6678573,307.133298 C74.2146318,298.925409 78.9926343,294.255941 89.1098292,287.432395 C89.6055151,287.09808 91.9950536,285.496795 92.6616641,285.046376 C94.0431454,284.112929 95.1641886,283.338351 96.2408542,282.567562 C98.6299587,280.857191 100.681856,279.244458 102.600474,277.53481 C109.669131,271.23605 110.919762,269.505255 110.599812,268.371906 C110.584255,268.317288 110.584255,268.317288 110.566827,268.256927 C110.475256,267.939209 110.431363,267.752399 110.403399,267.497682 C110.136237,265.064206 110.334046,263.217736 111.33978,261.751529 C111.940504,260.875765 112.619274,260.485118 114.199374,259.84619 C114.210748,259.841591 114.210748,259.841591 114.2221,259.837001 C115.47353,259.330995 115.92684,259.064085 116.205704,258.612959 C117.778733,256.068218 118.199797,253.321642 117.692596,249.931259 C117.308378,247.362963 117.049317,246.515836 114.703543,239.539856 C110.658438,227.510325 109.9951,219.951205 114.105926,210.238147 C115.193141,207.669276 120.839009,206.632761 130.387707,206.291055 C134.15296,206.156314 137.92215,206.156961 142.407048,206.238898 C142.874023,206.24743 144.517202,206.28012 144.835008,206.285479 C145.392153,206.294873 145.75161,206.295029 145.763002,206.293437 C150.337477,205.654031 151.49543,204.634144 152.644081,201.452434 C153.662006,198.632831 154.181216,197.582119 155.669874,196.021848 C156.017127,195.65789 156.397325,195.305137 156.813758,194.962342 C157.915022,194.055815 159.031535,193.635371 161.336443,193.047665 C161.434172,193.022766 161.434172,193.022766 161.531421,192.998023 C164.0964,192.345304 165.080804,191.918312 165.810104,190.945319 C168.735379,187.042578 168.612003,184.993913 166.449181,181.044069 C166.108564,180.422017 166.141099,180.481604 166.03276,180.279277 C164.312226,177.066132 164.062833,174.844165 165.866051,171.875608 C165.963752,171.714686 165.963752,171.714686 166.061502,171.553399 C166.171752,171.37142 167.031367,169.948558 167.286354,169.528731 C170.80445,163.736301 173.138742,160.59779 176.397134,157.886183 C178.088839,156.47836 179.918158,155.759811 183.596786,154.757917 C183.840356,154.691682 183.840356,154.691682 184.082809,154.625905 C188.90563,153.316993 190.721031,152.426475 191.811991,150.315602 C192.939647,148.133725 192.642673,146.141507 190.94617,141.152012 C190.647611,140.273936 190.496371,139.820064 190.330919,139.294656 C189.477845,136.585629 189.153553,134.594614 189.425708,132.630023 C189.687694,130.738846 190.543285,129.477541 192.678481,127.183143 C192.768007,127.086985 192.768007,127.086985 192.857182,126.991257 C194.466214,125.263688 195.108288,124.425452 195.517022,123.329049 C195.892055,122.323044 196.229185,121.288196 196.58782,120.071893 C196.794098,119.372306 197.443153,117.063499 197.461853,116.998249 C199.767272,108.954012 202.763254,106.467433 211.964632,107.76091 Z" id="Path" stroke="#FFF7B9" stroke-width="2" fill="#FFF7B9" mask="url(#mask-2)"></path>
                    </g>
                    <path d="M204.813891,92.5243483 C196.298887,84.4937942 192,76.8256626 192,69.5 C192,62.0441559 198.044156,56 205.5,56 C212.955844,56 219,62.0441559 219,69.5 C219,77.4728523 214.689581,85.161554 206.154642,92.5527888 L205.471414,93.1444622 L204.813891,92.5243483 Z" id="Oval" stroke="#FFF7B9" stroke-width="2"></path>
                    <circle id="Oval-Copy" stroke="#FFF7B9" stroke-width="2" cx="205.5" cy="69.5" r="3.5"></circle>
                </g>
            </g>
        </g>
    </g>
</svg>